<mxfile host="app.diagrams.net" modified="2024-03-28T01:45:24.101Z" agent="Mozilla/5.0 (Windows NT 10.0; Win64; x64) AppleWebKit/537.36 (KHTML, like Gecko) Chrome/122.0.0.0 Safari/537.36" etag="0hcALeuA-o70yXXfdfyL" version="24.2.0" type="github">
  <diagram name="Page-1" id="tNZX-WrpRzhzqSctlY8Z">
    <mxGraphModel dx="1877" dy="1691" grid="1" gridSize="10" guides="1" tooltips="1" connect="1" arrows="1" fold="1" page="1" pageScale="1" pageWidth="827" pageHeight="1169" math="0" shadow="0">
      <root>
        <mxCell id="0" />
        <mxCell id="1" parent="0" />
        <mxCell id="It5I78E70V_LC5ybQ0Hd-1" value="" style="fontColor=#0066CC;verticalAlign=top;verticalLabelPosition=bottom;labelPosition=center;align=center;html=1;outlineConnect=0;fillColor=#CCCCCC;strokeColor=#6881B3;gradientColor=none;gradientDirection=north;strokeWidth=2;shape=mxgraph.networks.pc;" vertex="1" parent="1">
          <mxGeometry x="530" y="625" width="100" height="70" as="geometry" />
        </mxCell>
        <mxCell id="It5I78E70V_LC5ybQ0Hd-2" value="" style="fontColor=#0066CC;verticalAlign=top;verticalLabelPosition=bottom;labelPosition=center;align=center;html=1;outlineConnect=0;fillColor=#CCCCCC;strokeColor=#6881B3;gradientColor=none;gradientDirection=north;strokeWidth=2;shape=mxgraph.networks.firewall;" vertex="1" parent="1">
          <mxGeometry x="360" y="80" width="100" height="100" as="geometry" />
        </mxCell>
        <mxCell id="It5I78E70V_LC5ybQ0Hd-3" value="" style="fontColor=#0066CC;verticalAlign=top;verticalLabelPosition=bottom;labelPosition=center;align=center;html=1;outlineConnect=0;fillColor=#CCCCCC;strokeColor=#6881B3;gradientColor=none;gradientDirection=north;strokeWidth=2;shape=mxgraph.networks.laptop;" vertex="1" parent="1">
          <mxGeometry y="640" width="100" height="55" as="geometry" />
        </mxCell>
        <mxCell id="It5I78E70V_LC5ybQ0Hd-4" value="" style="fontColor=#0066CC;verticalAlign=top;verticalLabelPosition=bottom;labelPosition=center;align=center;html=1;outlineConnect=0;fillColor=#CCCCCC;strokeColor=#6881B3;gradientColor=none;gradientDirection=north;strokeWidth=2;shape=mxgraph.networks.laptop;" vertex="1" parent="1">
          <mxGeometry x="160" y="640" width="100" height="55" as="geometry" />
        </mxCell>
        <mxCell id="It5I78E70V_LC5ybQ0Hd-5" value="" style="fontColor=#0066CC;verticalAlign=top;verticalLabelPosition=bottom;labelPosition=center;align=center;html=1;outlineConnect=0;fillColor=#CCCCCC;strokeColor=#6881B3;gradientColor=none;gradientDirection=north;strokeWidth=2;shape=mxgraph.networks.modem;" vertex="1" parent="1">
          <mxGeometry x="350" width="100" height="30" as="geometry" />
        </mxCell>
        <mxCell id="It5I78E70V_LC5ybQ0Hd-6" value="" style="fontColor=#0066CC;verticalAlign=top;verticalLabelPosition=bottom;labelPosition=center;align=center;html=1;outlineConnect=0;fillColor=#CCCCCC;strokeColor=#6881B3;gradientColor=none;gradientDirection=north;strokeWidth=2;shape=mxgraph.networks.router;" vertex="1" parent="1">
          <mxGeometry x="360" y="240" width="100" height="30" as="geometry" />
        </mxCell>
        <mxCell id="It5I78E70V_LC5ybQ0Hd-7" value="" style="fontColor=#0066CC;verticalAlign=top;verticalLabelPosition=bottom;labelPosition=center;align=center;html=1;outlineConnect=0;fillColor=#CCCCCC;strokeColor=#6881B3;gradientColor=none;gradientDirection=north;strokeWidth=2;shape=mxgraph.networks.server;" vertex="1" parent="1">
          <mxGeometry x="70" y="340" width="90" height="100" as="geometry" />
        </mxCell>
        <mxCell id="It5I78E70V_LC5ybQ0Hd-8" value="" style="fontColor=#0066CC;verticalAlign=top;verticalLabelPosition=bottom;labelPosition=center;align=center;html=1;outlineConnect=0;fillColor=#CCCCCC;strokeColor=#6881B3;gradientColor=none;gradientDirection=north;strokeWidth=2;shape=mxgraph.networks.server;" vertex="1" parent="1">
          <mxGeometry x="615" y="345" width="90" height="100" as="geometry" />
        </mxCell>
        <mxCell id="It5I78E70V_LC5ybQ0Hd-9" value="" style="fontColor=#0066CC;verticalAlign=top;verticalLabelPosition=bottom;labelPosition=center;align=center;html=1;outlineConnect=0;fillColor=#CCCCCC;strokeColor=#6881B3;gradientColor=none;gradientDirection=north;strokeWidth=2;shape=mxgraph.networks.switch;" vertex="1" parent="1">
          <mxGeometry x="60" y="530" width="100" height="30" as="geometry" />
        </mxCell>
        <mxCell id="It5I78E70V_LC5ybQ0Hd-10" value="" style="fontColor=#0066CC;verticalAlign=top;verticalLabelPosition=bottom;labelPosition=center;align=center;html=1;outlineConnect=0;fillColor=#CCCCCC;strokeColor=#6881B3;gradientColor=none;gradientDirection=north;strokeWidth=2;shape=mxgraph.networks.switch;" vertex="1" parent="1">
          <mxGeometry x="610" y="530" width="100" height="30" as="geometry" />
        </mxCell>
        <mxCell id="It5I78E70V_LC5ybQ0Hd-11" value="" style="fontColor=#0066CC;verticalAlign=top;verticalLabelPosition=bottom;labelPosition=center;align=center;html=1;outlineConnect=0;fillColor=#CCCCCC;strokeColor=#6881B3;gradientColor=none;gradientDirection=north;strokeWidth=2;shape=mxgraph.networks.laptop;" vertex="1" parent="1">
          <mxGeometry x="660" y="640" width="100" height="55" as="geometry" />
        </mxCell>
        <mxCell id="It5I78E70V_LC5ybQ0Hd-12" value="" style="fontColor=#0066CC;verticalAlign=top;verticalLabelPosition=bottom;labelPosition=center;align=center;html=1;outlineConnect=0;fillColor=#CCCCCC;strokeColor=#6881B3;gradientColor=none;gradientDirection=north;strokeWidth=2;shape=mxgraph.networks.switch;" vertex="1" parent="1">
          <mxGeometry x="380" y="380" width="100" height="30" as="geometry" />
        </mxCell>
        <mxCell id="It5I78E70V_LC5ybQ0Hd-13" value="" style="html=1;outlineConnect=0;fillColor=#CCCCCC;strokeColor=#6881B3;gradientColor=none;gradientDirection=north;strokeWidth=2;shape=mxgraph.networks.comm_link_edge;html=1;rounded=0;" edge="1" parent="1">
          <mxGeometry width="100" height="100" relative="1" as="geometry">
            <mxPoint x="20" y="650" as="sourcePoint" />
            <mxPoint x="120" y="550" as="targetPoint" />
            <Array as="points">
              <mxPoint x="-290" y="650" />
            </Array>
          </mxGeometry>
        </mxCell>
        <mxCell id="It5I78E70V_LC5ybQ0Hd-14" value="" style="html=1;outlineConnect=0;fillColor=#CCCCCC;strokeColor=#6881B3;gradientColor=none;gradientDirection=north;strokeWidth=2;shape=mxgraph.networks.comm_link_edge;html=1;rounded=0;entryX=1;entryY=0.5;entryDx=0;entryDy=0;entryPerimeter=0;exitX=0.5;exitY=0;exitDx=0;exitDy=0;exitPerimeter=0;" edge="1" parent="1" source="It5I78E70V_LC5ybQ0Hd-4" target="It5I78E70V_LC5ybQ0Hd-9">
          <mxGeometry width="100" height="100" relative="1" as="geometry">
            <mxPoint x="170" y="650" as="sourcePoint" />
            <mxPoint x="270" y="550" as="targetPoint" />
            <Array as="points">
              <mxPoint x="-140" y="650" />
            </Array>
          </mxGeometry>
        </mxCell>
        <mxCell id="It5I78E70V_LC5ybQ0Hd-16" value="" style="html=1;outlineConnect=0;fillColor=#CCCCCC;strokeColor=#6881B3;gradientColor=none;gradientDirection=north;strokeWidth=2;shape=mxgraph.networks.comm_link_edge;html=1;rounded=0;" edge="1" parent="1" target="It5I78E70V_LC5ybQ0Hd-12">
          <mxGeometry width="100" height="100" relative="1" as="geometry">
            <mxPoint x="150" y="545" as="sourcePoint" />
            <mxPoint x="250" y="445" as="targetPoint" />
            <Array as="points">
              <mxPoint x="190" y="475" />
            </Array>
          </mxGeometry>
        </mxCell>
        <mxCell id="It5I78E70V_LC5ybQ0Hd-17" value="" style="html=1;outlineConnect=0;fillColor=#CCCCCC;strokeColor=#6881B3;gradientColor=none;gradientDirection=north;strokeWidth=2;shape=mxgraph.networks.comm_link_edge;html=1;rounded=0;" edge="1" parent="1">
          <mxGeometry width="100" height="100" relative="1" as="geometry">
            <mxPoint x="200" y="580" as="sourcePoint" />
            <mxPoint x="300" y="480" as="targetPoint" />
          </mxGeometry>
        </mxCell>
        <mxCell id="It5I78E70V_LC5ybQ0Hd-18" value="" style="html=1;outlineConnect=0;fillColor=#CCCCCC;strokeColor=#6881B3;gradientColor=none;gradientDirection=north;strokeWidth=2;shape=mxgraph.networks.comm_link_edge;html=1;rounded=0;" edge="1" parent="1">
          <mxGeometry width="100" height="100" relative="1" as="geometry">
            <mxPoint x="200" y="580" as="sourcePoint" />
            <mxPoint x="300" y="480" as="targetPoint" />
          </mxGeometry>
        </mxCell>
      </root>
    </mxGraphModel>
  </diagram>
</mxfile>
